<!-- Generated by IcoMoon.io -->
<svg version="1.1" xmlns="http://www.w3.org/2000/svg" width="640" height="640" viewBox="0 0 640 640">
<title></title>
<g id="icomoon-ignore">
</g>
<path fill="#000" d="M475.312 308.688c-6.247-6.248-16.379-6.248-22.627 0l-132.685 132.684v-361.372c0-8.836-7.164-16-16-16s-16 7.164-16 16v361.372l-132.686-132.684c-6.249-6.248-16.379-6.248-22.628 0-6.248 6.247-6.248 16.379 0 22.627l160 160c3.125 3.123 7.219 4.685 11.314 4.685s8.189-1.562 11.314-4.688l160-160c6.248-6.247 6.248-16.377-0.002-22.624z"></path>
<path fill="#000" d="M560 608h-512c-26.467 0-48-21.532-48-48v-64c0-8.837 7.164-16 16-16s16 7.163 16 16v64c0 8.822 7.178 16 16 16h512c8.822 0 16-7.178 16-16v-64c0-8.837 7.163-16 16-16s16 7.163 16 16v64c0 26.468-21.532 48-48 48z"></path>
</svg>
